<svg xmlns="http://www.w3.org/2000/svg" version="1.1" xmlns:xlink="http://www.w3.org/1999/xlink" xmlns:svgjs="http://svgjs.com/svgjs" width="1440" height="560" preserveAspectRatio="none" viewBox="0 0 1440 560">
    <g mask="url(&quot;#SvgjsMask2179&quot;)" fill="none">
        <rect width="1440" height="560" x="0" y="0" fill="url(#SvgjsLinearGradient2180)"></rect>
        <circle r="7.29" cx="152.75" cy="245.57" filter="url(#SvgjsFilter2181)" fill="rgba(51, 121, 194, 0.58)"></circle>
        <circle r="5.255" cx="1361.615" cy="120.405" filter="url(#SvgjsFilter2181)" fill="rgba(51, 121, 194, 0.58)"></circle>
        <circle r="4.77" cx="235.91" cy="446" filter="url(#SvgjsFilter2181)" fill="rgba(51, 121, 194, 0.58)"></circle>
        <circle r="6.28" cx="1203.58" cy="297.54999999999995" filter="url(#SvgjsFilter2181)" fill="rgba(51, 121, 194, 0.58)"></circle>
        <circle r="5.36" cx="940.23" cy="195.63000000000002" filter="url(#SvgjsFilter2181)" fill="rgba(51, 121, 194, 0.58)"></circle>
        <circle r="7.285" cx="466.63500000000005" cy="118.625" filter="url(#SvgjsFilter2181)" fill="rgba(51, 121, 194, 0.58)"></circle>
        <circle r="5.25" cx="661.01" cy="481.31" filter="url(#SvgjsFilter2181)" fill="rgba(51, 121, 194, 0.58)"></circle>
        <circle r="6.37" cx="1217.6599999999999" cy="117.56" filter="url(#SvgjsFilter2181)" fill="rgba(51, 121, 194, 0.58)"></circle>
        <circle r="5.4" cx="399.54999999999995" cy="420.72999999999996" filter="url(#SvgjsFilter2181)" fill="rgba(51, 121, 194, 0.58)"></circle>
        <circle r="7.9" cx="1261.94" cy="41.22" filter="url(#SvgjsFilter2181)" fill="rgba(51, 121, 194, 0.58)"></circle>
        <circle r="7.49" cx="750.77" cy="176.62" filter="url(#SvgjsFilter2181)" fill="rgba(51, 121, 194, 0.58)"></circle>
        <circle r="8.155" cx="918.295" cy="309.67499999999995" filter="url(#SvgjsFilter2181)" fill="rgba(51, 121, 194, 0.58)"></circle>
        <circle r="8.1" cx="1361.98" cy="244.31" filter="url(#SvgjsFilter2181)" fill="rgba(51, 121, 194, 0.58)"></circle>
        <circle r="8.85" cx="1339.1599999999999" cy="418.67" filter="url(#SvgjsFilter2181)" fill="rgba(51, 121, 194, 0.58)"></circle>
        <circle r="8.385" cx="259.65500000000003" cy="499.765" filter="url(#SvgjsFilter2181)" fill="rgba(51, 121, 194, 0.58)"></circle>
        <circle r="4.75" cx="1373.42" cy="318.37" filter="url(#SvgjsFilter2181)" fill="rgba(51, 121, 194, 0.58)"></circle>
        <circle r="5.295" cx="848.3449999999999" cy="150.52499999999998" filter="url(#SvgjsFilter2181)" fill="rgba(51, 121, 194, 0.58)"></circle>
        <circle r="7.725" cx="847.5550000000001" cy="413.58500000000004" filter="url(#SvgjsFilter2181)" fill="rgba(51, 121, 194, 0.58)"></circle>
        <circle r="8.525" cx="350.445" cy="408.075" filter="url(#SvgjsFilter2181)" fill="rgba(51, 121, 194, 0.58)"></circle>
        <circle r="6.735" cx="117.225" cy="484.535" filter="url(#SvgjsFilter2181)" fill="rgba(51, 121, 194, 0.58)"></circle>
        <path d="M1357.8 581.2L1351.9 568.6 1360.3 568.9C1361.2 569 1362.2 568.3 1362.6 567 1362.3 565.9 1361.6 564.9 1360.5 565.2L1349.9 564.3 1344.9 554.7 1366.8 556.4C1367.9 556.2 1368.9 555.4 1369 554.5 1369 553.1 1368.3 552.1 1367.2 552.3L1342.9 550.4 1335.6 535.4 1354.5 538.9 1344.1 522.8 1360.7 523.9 1371.6 545.7C1371.4 546 1371.7 546.2 1372.1 546.4 1372.7 546.9 1373.6 547 1374.4 546.6 1375.2 546.1 1375.5 544.9 1375.3 543.8L1365.4 524.1 1376.2 525.2 1381 534.6C1381.1 535.2 1381.4 535.4 1381.8 535.6 1382.1 535.8 1383 535.9 1383.8 535.5 1384.5 535.1 1384.9 533.8 1384.4 533.1L1380.9 525.4 1394.9 526.1C1396.1 526.5 1396.8 525.5 1397.1 524.2 1397.2 523.3 1396.4 522.3 1395 522.3L1381.3 521.3 1385.9 514.3C1386.6 513.3 1386.1 512 1385.4 511.5 1384.4 510.9 1383.3 511.1 1382.6 512.1L1376.6 521.1 1365.7 520 1377.8 502.1C1378.4 501.1 1378.2 500 1377.2 499.3 1376.6 498.9 1375.1 498.9 1374.5 499.9L1361.1 519.8 1344.4 518.7 1356.6 504.2 1337.7 505 1347.1 491.1 1371 492.7C1372.5 492.7 1373.2 491.8 1373.3 490.9 1373.4 490 1372.6 489 1371.4 488.6L1349.5 487.5 1355.6 478.5 1366.3 479C1367.5 479.3 1368.5 478.5 1368.5 477.1 1368.7 476.2 1367.9 475.2 1366.4 475.2L1358.2 474.5 1366 462.9C1366.7 461.9 1366.5 460.8 1365.5 460.1S1363.4 459.7 1362.7 460.7L1354.9 472.3 1351.2 464.9C1350.6 463.6 1349.4 463.3 1348.6 463.7 1347.3 464.3 1347 465.5 1347.7 466.5L1352.2 476.3 1346.2 485.2 1336.9 465.4C1336.1 464.4 1334.9 464.1 1334.1 464.5 1332.8 465.1 1332.4 466.3 1333.2 467.3L1343.8 488.9 1334.4 502.8 1328 485 1319.2 501.8 1311.9 486.8 1325.3 466.8C1326 465.8 1325.4 464.5 1324.8 464.1 1323.8 463.4 1322.7 463.6 1322 464.6L1309.7 482.9 1304.9 472.9 1310.9 463.9C1311.6 462.9 1311.4 461.8 1310.4 461.1 1309.7 460.7 1308.3 460.7 1307.6 461.7L1302.9 468.6 1296.7 456.3C1296.2 455 1295 454.6 1294 455.4 1293.2 455.8 1292.5 456.8 1293.3 457.8L1299.2 470.5 1290.8 470.2C1289.9 470 1288.9 470.8 1288.8 471.7 1288.7 472.6 1289.1 473.4 1289.5 473.6 1289.8 473.8 1290.1 474 1290.7 473.9L1301.2 474.7 1306.3 484.4 1284.3 482.7C1283.2 482.9 1282.2 483.7 1282.1 484.5 1282 485.4 1282.4 486.2 1283.1 486.7 1283.4 486.9 1283.4 486.9 1284 486.8L1308.3 488.6 1315.5 503.6 1296.7 500.1 1307.1 516.3 1290.4 515.2 1279.5 493.4C1279.1 492.6 1278.1 492 1276.7 492.5 1276 493 1275.6 494.2 1275.8 495.3L1285.8 515 1274.9 513.9 1270.2 504.5C1269.9 503.4 1268.7 503 1267.4 503.6 1266.6 504 1266.3 505.2 1266.5 506.3L1270.2 513.7 1256.3 513C1255 512.6 1254.4 513.6 1254 514.8 1254.1 515.4 1254.6 516.2 1254.9 516.4 1255.2 516.6 1255.6 516.8 1256.1 516.7L1269.9 517.8 1265.2 524.8C1264.5 525.7 1265.1 527.1 1265.7 527.5L1265.7 527.5C1266.7 528.2 1267.8 528 1268.5 527L1274.5 518 1285.4 519.1 1273.4 537C1272.7 538 1272.9 539.1 1273.9 539.8S1276 540.2 1276.7 539.2L1290.1 519.3 1306.7 520.4 1294.6 534.8 1313.4 534 1304.1 548 1280.1 546.3C1278.7 546.3 1278 547.3 1277.9 548.2 1277.8 549.1 1278.5 550.1 1279.7 550.4L1301.4 552 1295.6 560.6 1284.8 560.1C1283.6 559.8 1282.6 560.5 1282.6 562 1282.5 562.9 1283.2 563.9 1284.5 564.2L1292.9 564.6 1285.1 576.2C1284.4 577.2 1284.6 578.3 1285.6 579S1287.7 579.4 1288.4 578.4L1296.2 566.8 1300 574.1C1300.1 574.7 1300.4 574.9 1300.7 575.1 1301.4 575.6 1302 575.5 1302.5 575.4 1303.8 574.8 1304.2 573.6 1303.4 572.6L1298.9 562.8 1304.9 553.9 1314.3 573.6C1314.6 573.9 1314.9 574.1 1315.3 574.3 1315.9 574.7 1316.5 574.6 1317 574.5 1318.4 574 1318.7 572.8 1317.9 571.8L1307.4 550.2 1316.7 536.3 1323.1 554 1331.9 537.3 1339.2 552.3 1325.8 572.2C1325.1 573.2 1325.7 574.6 1326.4 575 1327.4 575.7 1328.5 575.5 1329.1 574.5L1341.2 556.5 1346.3 566.2 1340.2 575.2C1339.6 576.2 1339.8 577.3 1340.8 577.9S1342.9 578.4 1343.6 577.4L1348.2 570.4 1354.4 582.8C1354.5 583.3 1354.8 583.5 1355.2 583.8 1355.5 584 1356.4 584.1 1357.2 583.7 1358 583.2 1358.6 582.2 1357.8 581.2ZM1323.8 544.4L1318.7 529.8 1303.2 530.5 1313.3 518.5 1305 505.7 1320.2 508.2 1327.3 494.7 1332.5 509.2 1347.9 508.5 1338.1 520.2 1346.2 533.4 1331.2 530.5 1323.8 544.4Z" fill="rgba(51, 121, 194, 0.58)"></path>
        <path d="M782.9 403.5L833.8 407.5 845.6 421.9 828.4 420.5C826.6 419.9 825.4 421.5 824.7 423.3 824.9 424.7 826.3 426.6 827.7 426.4L851.3 428.7 863.3 442.6 845.3 445.6 825.7 431.8C825.7 431.8 825.1 431.6 825.1 431.6 823.9 431.2 822.3 431.9 821.3 432.9 820.6 434.7 820.8 436.1 822.4 437.4L836.5 447.2 818.4 450.3 776.4 421.6C776.4 421.6 776 420.8 776 420.8 774.8 420.3 773.1 421.1 772.1 422.1 770.9 423.7 771.4 425.9 773.2 426.6L809.7 451.9 787.7 456.2 771.4 444.9C771.4 444.9 771.4 444.9 770.8 444.7 769.6 444.3 768.2 444.5 767.1 445.4 766.5 447.3 766.4 449.3 768 450.5L779 457.9 762.9 460.9C760.9 460.9 760.2 462.7 760.4 464.1 760.4 466.1 762 467.4 764.2 466.8L780 464.4 772.3 474.5C771.7 476.3 771.6 478.3 773.4 479 775 480.2 776.5 480.1 777.7 478.5L789 462.1 810.8 458.4 785.2 495.5C784.2 496.4 784.7 498.7 786.3 499.9 787.5 500.4 789.6 500.4 790.8 498.8L819.5 456.8 837.6 453.7 827.7 467.9C826.5 469.5 827.3 471.1 828.9 472.4 829.8 473.4 832.1 472.8 833.1 471.9L846.3 452.1 864.6 448.5 858.4 465.9 837.1 476C835.4 476.8 834.8 478.6 835.6 480.2 835.7 481.6 838.1 482.5 839.8 481.7L855.3 474.4 849.1 491.9 802.6 513.3C801 514 800.3 515.8 801.1 517.5 801.9 519.1 803.7 519.8 805.3 519L846 500.3 838.7 520.8 820.7 529.3C819 530 818.4 531.8 819.2 533.5 819.9 535.1 821.7 535.8 823.4 535L835.4 529.8 830 544.9C829.4 546.7 830.2 548.3 832 549 833.8 549.6 835.4 548.8 836.1 547L841.5 532 846.9 543.4C847.6 545.1 849.5 545.7 851.1 544.9S853.4 542.4 852.6 540.7L844.5 523.5 852.1 502.4 871 542.6C871.8 544.2 873.6 544.8 875.2 544.1 876.8 543.3 877.5 541.5 876.7 539.9L855.1 494 861.4 476.5 868.7 492.1C869.5 493.7 871.3 494.4 872.9 493.6 874.5 492.8 875.2 491 874.4 489.4L864.4 468.1 870.4 451.2 881.9 464.9 880.1 488.7C880.3 490.1 881.7 492 883.1 491.8 885.1 491.9 886.1 490.9 886.8 489.1L888.2 471.9 899.6 485.5 895.6 536.4C895.6 538.5 896.6 539.5 898.4 540.1 900.4 540.2 901.6 538.6 902.1 537.4L905.9 492.5 920.1 509.9 918.7 529.1C918 530.9 919.6 532.1 921.4 532.8 922.8 532.6 924.7 531.2 924.7 529.2L925.8 516.7 936.5 528.7C937.3 530.3 939.3 530.3 941.1 529 942.2 528 942.2 526 941.2 524.9L930.8 512.3 943.9 513.6C945.9 513.7 947.2 512.1 947 510.7 947.7 508.9 946.7 507.8 945.5 507.4 944.9 507.2 944.9 507.2 944.3 507L925.1 505.5 910.9 488.2 955.1 491.8C956.9 492.5 958.2 490.9 958.8 489.1 958.7 487.7 957.7 486.6 956.5 486.2 955.9 486 955.9 486 955.9 486L904.6 481.2 893.1 467.6 910.3 469C912.3 469 913.4 468 914 466.2 913.9 464.8 913.1 463.1 911.9 462.7 911.3 462.5 911.3 462.5 910.7 462.3L886.8 460.5 875.4 446.9 892.9 443.7 912.6 456.9C914.2 458.1 916.4 457.6 917.5 456.6 918.1 454.8 918.2 452.7 916.4 452.1L902.2 442.3 919.9 438.4 962.4 467.9C963.4 468.9 965.6 468.4 966.6 467.4 967.3 465.6 967.3 463.6 965.7 462.3L929.3 437 951 433.2 966.7 444.3C968.3 445.6 970.6 445 971.2 443.2 972.3 442.2 972.3 440.2 970.7 439L959.8 431.6 975.8 428.5C977.2 428.4 978.5 426.8 978.5 424.8 978.1 423.9 977.2 422.9 976 422.5 976 422.5 975.3 422.3 974.7 422L958.7 425.1 966 414.1C967.1 413.2 966.5 410.9 965.5 409.9 964.9 409.7 964.9 409.7 964.9 409.7 963.1 409 961.5 409.8 961 411L949.9 426.7 928 431.1 953.5 394C954.2 392.2 954 390.8 952.4 389.5 952.4 389.5 951.8 389.3 951.8 389.3 950.6 388.9 949.2 389.1 947.9 390.7L918.6 432.5 901.2 435.7 911 421.6C911.6 419.8 911.7 417.8 909.9 417.1 910.1 416.5 909.5 416.3 909.5 416.3 908.3 415.9 906.6 416.6 905.6 417.6L892.4 437.4 874.3 440.4 880.4 423.5 901.7 413.5C903.3 412.7 904.2 410.3 903.4 408.7 902.4 407.6 900.6 407 899.2 407.2L883.4 415.1 889.7 397.6 935.5 376C937.1 375.2 937.8 373.4 937 371.8 936.3 370.1 934.4 369.5 932.8 370.3L892.7 389.2 900.3 368.1 917.5 360C919.1 359.2 919.7 357.4 919 355.8S916.4 353.5 914.7 354.3L903.3 359.7 908.7 344.6C909.3 342.8 908.6 341.2 906.8 340.5 905 339.9 903.3 340.7 902.7 342.5L897.3 357.5 891.3 345.8C890.9 345 890.5 344.2 889.9 344 889.3 343.8 887.9 343.9 887 344.3 885.4 345.1 884.8 346.9 885.5 348.5L894.2 366 886.7 387 867.1 346.7C866.8 345.9 866.4 345.1 865.8 344.9 865.2 344.6 863.7 344.8 862.9 345.2 861.3 346 860.6 347.8 861.4 349.4L883.6 395.5 877.4 412.9 870.3 396.8C869.9 396 868.7 395.5 868.1 395.3 867.5 395.1 866.9 394.9 866 395.3 864.4 396 863.5 398.5 864.5 399.5L874.4 421.4 868.3 438.2 856.3 424.4 858.6 400.8C858.5 399.3 857.7 397.7 856.5 397.3 855.9 397.1 855.9 397.1 855.7 397.7 853.9 397 852 398.4 852 400.4L850.6 417.6 838.5 403.8 843.3 352.4C843.2 351 842.2 350 841 349.6 840.4 349.3 840.4 349.3 840.4 349.3 838.3 349.3 836.7 350.1 836.7 352.1L832.8 396.9 818.6 379.6 820.1 360.4C820.1 358.4 819.1 357.4 817.9 356.9 817.9 356.9 817.3 356.7 817.3 356.7 815.3 356.7 814 358.3 813.6 359.5L812.9 372.8 802.5 360.2C801.9 360 801.3 359.8 800.7 359.6 800.1 359.4 798.6 359.5 797.8 359.9 796.6 361.5 795.9 363.3 797.5 364.6L807.9 377.1 794.8 375.8C792.8 375.8 791.5 377.4 791.1 378.6 791.1 380.6 792.7 381.9 794.5 382.5L813.7 384 828.1 400.7 783.8 397C781.8 397 779.9 398.4 780.1 399.8 780.1 401.8 780.8 403.5 782.9 403.5Z" fill="rgba(51, 121, 194, 0.58)"></path>
        <path d="M1120.4 312.6L1142.2 307.3 1138.9 320.4C1138.5 321.8 1139.3 323.6 1141.2 324.5 1143 324.5 1144.8 323.6 1144.8 321.8L1149.4 305.5 1166.2 300.7 1156.5 334.6C1156.5 336.4 1157.4 338.2 1158.7 338.6 1161 339.1 1162.8 338.2 1162.8 336.4L1173.4 298.9 1199.3 292.3 1187.8 320.7 1216.4 309.5 1209.4 335.3 1171.8 345.5C1171.4 345 1170.9 345.5 1170.4 345.9 1169.5 346.8 1169.1 348.2 1169.5 349.6 1170 350.9 1171.8 351.8 1173.6 351.8L1207.6 342.5 1202.5 359.2 1186.2 363.7C1185.3 363.7 1184.8 364.1 1184.4 364.6 1183.9 365 1183.5 366.4 1183.9 367.7 1184.3 369.1 1186.2 370 1187.5 369.6L1200.7 366.5 1195.1 388.2C1194.2 390 1195.5 391.3 1197.3 392.3 1198.7 392.7 1200.5 391.8 1201 389.6L1207 368.3 1216.4 377.9C1217.8 379.2 1220 378.8 1221 377.9 1222.3 376.6 1222.3 374.7 1221 373.4L1208.8 361.1 1213.9 344.4 1238.2 368.9C1239.6 370.3 1241.4 370.3 1242.7 369 1243.6 368.1 1244.1 365.8 1242.8 364.4L1215.8 337.1 1222.7 311.4 1241.6 335 1246.3 305.2 1265.2 324.3 1255 361.3C1254.5 363.6 1255.9 365 1257.2 365.4 1258.6 365.9 1260.4 365 1261.3 363.2L1270.1 329.3 1282.3 341.6 1278.1 358.3C1277.2 360.1 1278.1 361.9 1280.3 362.4 1281.7 362.9 1283.5 362 1284 359.7L1287.7 347.1 1303.4 363C1304.8 364.3 1306.6 364.4 1307.9 363S1309.3 359.8 1308 358.5L1292.2 342.6 1304.9 339C1307.2 338.6 1308.1 336.8 1307.6 335.4 1307.2 333.1 1305.4 332.2 1303.6 333.1L1286.8 337.1 1274.7 324.8 1308.6 316.4C1310.5 315.5 1311.4 313.7 1310.9 312.3 1310.5 310.1 1308.7 309.2 1306.9 310L1269.7 319.8 1250.8 300.7 1280.7 296.3 1257.3 277.2 1283.1 270.5 1310.1 297.8C1311.5 299.2 1313.7 298.8 1314.6 297.9 1316 296.5 1316 294.7 1314.7 293.3L1289.9 268.3 1307.1 263.9 1319.3 276.2C1320.6 277.5 1322.4 277.6 1323.8 276.2 1324.7 275.3 1325.2 273 1323.8 271.7L1314.4 262.1 1335.7 256.4C1337.9 255.9 1338.9 254.1 1338 252.3 1337.5 250.9 1336.2 249.6 1334.4 250.5L1312.6 255.8 1315.8 242.7C1316.3 241.3 1315.4 239.5 1314.1 239 1312.7 238.6 1311.3 239 1310.9 239.5 1310.4 239.9 1310 240.4 1310 241.3L1305.4 257.5 1288.6 262.4 1298.3 228.5C1298.3 226.7 1297.4 224.9 1296 224.5 1294.7 224 1293.3 224.4 1292.4 225.3 1292 225.8 1292 225.8 1291.9 226.7L1281.3 264.2 1255.5 270.8 1267 242.4 1238.4 253.5 1245.3 227.8 1282.9 217.6C1284.3 217.1 1285.7 215.8 1285.2 213.5 1284.8 212.2 1283 211.3 1281.2 211.2L1247.2 220.6 1252.3 203.8 1268.6 199.4C1270.4 199.4 1271.3 197.6 1270.9 195.4 1270.4 194 1268.6 193.1 1266.8 193.1L1254.1 196.6 1259.7 174.9C1260.6 173.1 1259.2 171.8 1257.4 170.8 1256.5 170.8 1255.1 171.3 1254.7 171.7 1254.2 172.2 1253.8 172.6 1253.8 173.5L1247.8 194.8 1238.3 185.2C1237 183.8 1234.7 184.3 1233.8 185.2L1233.8 185.2C1232.4 186.5 1232.4 188.3 1233.8 189.7L1245.9 202 1240.9 218.7 1216.6 194.1C1215.2 192.8 1213.4 192.8 1212 194.1S1210.7 197.3 1212 198.6L1239 225.9 1232.1 251.7 1213.2 228.1 1208.5 257.9 1189.6 238.8 1199.8 201.7C1200.2 199.5 1198.9 198.1 1197.5 197.7 1196.2 197.2 1194.4 198.1 1193.4 199.9L1184.2 233.3 1172.5 221.5 1176.7 204.8C1177.6 203 1176.7 201.2 1174.4 200.7 1173.1 200.2 1171.3 201.1 1170.3 202.9L1167.1 216 1151.4 200.1C1150 198.7 1148.2 198.7 1146.8 200.1S1145.5 203.2 1146.8 204.6L1162.6 220.5 1149.9 224.1C1149 224.1 1148.5 224.5 1148 225 1147.1 225.9 1147.1 226.8 1147.1 227.7 1147.6 230 1149.4 230.9 1151.2 230L1168 226 1180.1 238.3 1146.1 246.7C1145.7 247.1 1145.2 247.6 1144.7 248 1143.8 248.9 1143.8 249.9 1143.8 250.8 1144.3 253 1146.1 253.9 1147.9 253L1185.1 243.3 1204 262.4 1174.1 266.8 1197.5 285.9 1171.7 292.5 1144.7 265.2C1143.3 263.9 1141 264.3 1140.1 265.2 1138.8 266.6 1138.8 268.4 1140.1 269.7L1164.4 294.3 1147.6 299.2 1135.5 286.9C1134.1 285.6 1132.3 285.5 1131 286.9S1129.6 290.1 1130.9 291.4L1140.4 301 1119.1 306.7C1118.2 306.7 1117.7 307.2 1117.3 307.6 1116.8 308.1 1116.3 309.4 1116.8 310.8 1117.2 312.2 1118.6 313.5 1120.4 312.6ZM1189 270.9L1213.4 267.4 1217.2 243 1232.9 262.6 1255.6 253.6 1246.9 276.7 1265.8 292.2 1241.3 295.7 1237.6 320.1 1222.3 301 1199.2 309.4 1208.3 286.9 1189 270.9Z" fill="rgba(51, 121, 194, 0.58)"></path>
        <path d="M662.7 451.8L645.2 452.5 650.3 441.9C650.9 440.8 650.4 439.1 649.1 438 647.5 437.7 645.8 438.1 645.2 439.2L638.2 453.1 621.9 453.7 636.3 425.6C637.1 423.7 636.6 422 635.1 421.7 633.7 420.6 632 421 631.2 422.9L615.3 454 600.6 454.9 581.9 426.3 587.6 414.6 624.8 413C625.2 412.7 625.7 412.4 626.2 412.1 626.6 411.8 627.3 410.7 627.4 410 627.4 407.9 626.1 406.8 624.3 407.3L590.5 408.7 597.9 394.5 615.2 393.2C615.5 393.7 615.9 393.4 616.4 393.1 617.3 392.5 618 391.4 617.8 390.2 617.7 388.9 616.3 387.8 614.7 387.5L600.8 388.6 609.8 370.7C610.4 369.6 610 367.9 608.6 366.8 607 366.4 605.3 366.9 604.7 368L596.3 384.8 589.9 375C588.9 373.6 586.9 373.5 586 374.2 584.6 375.1 583.8 376.9 584.7 378.3L593 391 585.5 405.2 568.4 379C567.5 377.6 565.9 377.2 564.5 378.1 563.1 379.1 562.8 380.6 563.7 382L582.7 411.1 576.8 423.6 542.5 425.3 535.4 414.5 551.4 382.7C552.5 381.3 551.8 379.1 550.2 378.8 548.8 377.7 547.4 378.6 546.3 380L531.8 408.9 522.9 395.3 530.3 381.1C530.9 380 530.2 377.8 529.1 377.2S525.8 377.3 524.7 378.7L519.2 389.7 508.5 373.3C507.6 371.9 505.5 371.8 504.1 372.7 503.2 373.4 502.4 375.2 503.3 376.6L514 393 501.3 394C500.1 394.1 498.6 395.1 498.6 397.1 498.8 398.3 500.5 399.9 501.7 399.8L517.7 398.7 526.6 412.3 494.3 414C492.6 414.4 491.2 415.3 491.1 417.4 491.3 418.6 493 420.2 494.2 420L530.3 417.9 537.3 428.7 521.9 459.4 508.1 459.8 489.1 430.7C488.2 429.3 486.7 429 485.3 429.9 483.9 430.8 483.1 432.7 484 434.1L501.1 460.3 485.1 461.4 476.9 448.8C475.9 447.3 474.4 447 473 447.9 471.6 448.9 471.2 450.4 472.2 451.8L478.6 461.7 459.8 462.6C458.5 462.7 457 464.4 457.1 465.6 457.6 467.4 458.5 468.8 460.2 468.3L479.8 467.6 473.6 479.6C473.3 481.2 473.7 482.9 474.8 483.5 475.9 484.2 477.1 484 478.1 483.4 478.1 483.4 478.5 483.1 478.7 482.3L486.8 467 502.8 465.9 487.9 496.4C486.8 497.8 487.2 499.5 489.1 500.3 489.9 500.4 490.6 500.6 491.6 500 492 499.7 492.5 499.4 493 499.1L509.3 465.7 522.4 465.2 541 493.8 534.2 506.9 499.4 508.9C497.4 508.9 496.3 510.3 496.7 512 496.4 513.6 497.8 514.7 499.8 514.7L531.4 512.8 524.2 527.5 508.7 528.3C507.5 528.4 506.4 529.8 506 531.4 506.5 533.1 507.4 534.5 509.1 534L520.9 533.7 513.2 549.4C512.1 550.8 513 552.2 514.4 553.3 515.1 553.5 516.4 553.4 517.3 552.7 517.3 552.7 517.8 552.4 518.3 552.1L526.7 535.3 534.3 547C534.9 547.9 536.8 548.7 538.2 547.8 539.6 546.9 539.6 544.9 539 543.9L529.5 529.4 536.6 514.7 555.3 543.3C556.2 544.7 558.3 544.7 559.7 543.8S561.4 541.4 560.5 540L540 508.5 546.1 496.5 580.5 494.8 588.4 507 572 539.1C571.6 540.7 572.1 542.4 573.5 543.5 574.3 543.7 575.5 543.5 576.4 542.9 576.9 542.6 577.4 542.3 577.5 541.5L592.1 512.6 601 526.2 593.9 540.9C593.2 542 593.7 543.7 595.1 544.8 596.6 545.1 598.3 544.7 599 543.6L604.7 531.8 614.5 546.8C615.1 547.8 617.4 548.3 618.3 547.7 619.7 546.7 620.2 544.4 619.6 543.5L609.8 528.5 622.4 528.3C622.9 528 623.3 527.7 623.8 527.4 624.7 526.7 625.4 525.7 625.5 524.9 625.1 523.2 623.7 522.1 622.2 521.8L606.1 522.8 597.3 509.2 629.6 507.5C631.6 507.6 632.7 506.2 632.6 504.9 632.6 502.9 631.2 501.8 629.6 501.5L593.6 503.6 585.6 491.4 601 460.7 614.5 459.9 635 491.3C635.9 492.7 637.5 493 638.9 492.1 640.3 491.2 640.6 489.6 639.7 488.2L621 459.6 637.4 459 646.8 473.5C647.5 474.5 649.8 475 651.2 474 652.6 473.1 652.6 471.1 652 470.2L644.4 458.4 663.2 457.5C663.6 457.2 663.6 457.2 664.1 456.9 665 456.3 665.7 455.2 665.8 454.4 665.4 452.7 664 451.6 662.7 451.8ZM582 485.8L580.1 489 576.8 489.2 549 490.6 545.7 490.7 543.9 487.9 528.9 464.9 527 462.1 528.5 459.2 541 434.3 542.4 431.4 546.1 430.9 573.5 429.8 577.2 429.4 579.1 432.2 594.1 455.2 595.9 458 594 461.2 582 485.8Z" fill="rgba(51, 121, 194, 0.58)"></path>
        <path d="M312.3 221.8L331 249.2 325.4 278.2 303.1 258.9 300.9 225.8C300.9 225.8 300.8 225.4 300.8 225.4 300.5 224.6 299.5 224.1 298.6 224 297.4 224 296.5 225.2 296.9 226.3L298.9 255.3 288 245.9 287 233.1C287 233.1 286.8 232.8 286.8 232.8 286.6 232 285.5 231.5 284.7 231.4 283.4 231.4 282.5 232.5 282.9 233.7L283.4 242.4 275.5 235.4C274.8 234.8 273.2 234.9 272.6 235.6 271.6 236.3 272.1 237.9 272.7 238.5L280.7 245.5 271.9 246C270.7 246 269.8 247.1 270.2 248.3 270.2 249.5 271.3 250.4 272.5 250L285.2 249 295.7 258.5 266.8 260.4C265.5 260.4 264.6 261.6 265 262.7 265.1 264 266.2 264.9 267.3 264.5L300.5 262.3 322.8 281.7 294.5 291.5 264.4 276.9C263.4 276.4 262.3 276.8 261.8 277.8 261.3 278.8 261.7 280 262.7 280.5L289.2 293.3 275.6 298 264.4 292.6C263.4 292.1 262.2 292.5 261.7 293.5 261.2 294.5 261.6 295.7 262.6 296.2L270.3 299.9 259.7 303.5C258.4 303.5 258.1 304.9 258.5 306.1 258.9 307.2 259.9 307.7 261 307.3L270.8 303.9 267.1 311.5C266.6 312.6 267 313.7 268 314.2S270.2 314.3 270.7 313.3L276.1 302.1 289.7 297.4 276.9 323.8C276.4 324.8 276.8 326 277.8 326.5 278.8 327 279.9 326.6 280.4 325.5L295 295.5 323 285.8 317.4 314.9 290.6 333C289.6 333.8 289.7 335.1 290.1 336.2 290.8 337.2 292.1 337.2 293.2 336.8L317.2 320.4 314.4 334.5 303.8 341.6C302.8 342.4 302.8 343.6 303.2 344.8 304 345.8 305.2 345.8 306 345.5L313.1 340.5 311.2 350.9C311.1 351.8 311.6 353.3 312.9 353.3 314.2 353.2 315.3 352.8 315.3 351.6L317.2 341.2 322.2 348.3C323 349.3 324.2 349.3 325 349.1 325.6 348.4 326.1 347.4 325.8 346.7 325.8 346.7 325.7 346.3 325.7 346.3L318.6 335.6 321.4 321.5 337.7 345.5C338.5 346.5 339.8 346.5 340.5 346.2 341.1 345.6 341.6 344.6 341.4 343.8 341.4 343.8 341.2 343.4 341.2 343.4L322.5 316.1 328.1 287 350.4 306.4 352.6 339.5C352.6 340.8 353.7 341.6 354.9 341.3 356.1 341.2 357 340.1 356.6 339L354.6 310 365.5 319.4 366.5 332.1C366.6 333.4 367.7 334.3 368.8 333.9 370.1 333.9 371 332.7 370.6 331.6L370.1 322.9 378 329.9C378.7 330.5 380.3 330.3 380.9 329.7 381.6 329.1 381.7 328.2 381.4 327.4 381.3 327 381.1 326.7 380.6 326.4L372.7 319.4 381.4 318.9C382.7 318.9 383.6 317.8 383.2 316.6 383.2 316.6 383.1 316.3 383.1 316.3 382.8 315.5 381.8 315 380.9 314.9L368.1 315.9 357.3 306.6 386.2 304.6C387.5 304.6 388.3 303.4 387.9 302.3 387.9 302.3 387.8 301.9 387.8 301.9 387.6 301.2 386.5 300.7 385.7 300.5L352.5 302.7 330.2 283.4 358.1 273.7 388.2 288.2C389.2 288.7 390.3 288.3 390.8 287.3 391.3 286.3 390.9 285.2 389.9 284.7L363.8 271.7 377.4 267 388.6 272.4C389.6 272.9 390.8 272.5 391.3 271.5S391.4 269.4 390.3 268.9L382.7 265.2 392.5 261.8C393.7 261.4 394.2 260.3 393.8 259.2 393.4 258.1 392.4 257.6 391.2 258L381.4 261.4 385.1 253.7C385.4 253.2 385.6 252.7 385.3 252S384.6 251 384.1 250.7C383 250.2 381.9 250.6 381.4 251.6L376 262.8 362.4 267.5 375.2 241.1C375.5 240.6 375.7 240.1 375.5 239.3 375.3 238.9 374.7 238.3 374.2 238.1 373.2 237.6 372 238 371.5 239L357 269 329 278.7 334.6 249.7 361.9 230.9C362.6 230.2 363.1 229.2 362.8 228.5 362.8 228.5 362.7 228.1 362.7 228.1 361.9 227.1 360.6 227.1 359.9 227.3L335.9 243.7 338.7 229.6 349.3 222.5C350 221.9 350.4 220.9 350.2 220.1 350.2 220.1 350.1 219.7 350.1 219.7 349.3 218.7 348 218.8 347.3 219L340.1 224 342 213.6C341.9 213.3 342.1 212.8 342 212.4 341.7 211.6 341.1 211 340.2 210.9 338.9 210.9 337.8 211.3 337.8 212.6L335.9 222.9 330.9 215.8C330.1 214.8 328.9 214.8 328.1 215.1 327.1 215.8 327.1 217.1 327.4 217.9L334.5 228.5 331.7 242.6 315.4 218.6C314.6 217.6 313.3 217.6 312.6 217.9 311.8 219.4 311.5 220.8 312.3 221.8Z" fill="rgba(51, 121, 194, 0.58)"></path>
        <path d="M167.5 354.8L140.9 355.5 123.9 339.1 146.6 332.5 169.8 345.5C169.8 345.5 170.1 345.6 170.1 345.6 170.7 345.7 171.5 345.3 172 344.7 172.5 343.9 172.1 342.8 171.2 342.6L150.9 331.3 161.9 328.1 170.9 332.9C170.9 332.9 171.2 333 171.2 333 171.9 333.2 172.6 332.7 173.1 332.2 173.6 331.3 173.2 330.2 172.3 330L166.3 326.5 174.4 324.2C175.1 324.1 175.7 322.9 175.6 322.2 175.5 321.2 174.2 320.9 173.5 321.1L165.4 323.3 168.9 317.3C169.4 316.4 169 315.3 168.1 315.1 167.2 314.5 166.1 314.9 165.9 315.9L161 324.9 150.1 327.8 161.4 307.5C161.9 306.6 161.6 305.6 160.6 305.3 159.8 304.8 158.7 305.2 158.4 306.1L145.5 329.3 122.7 335.8 128.5 312.5 151.4 298.7C152.1 298.3 152.4 297.3 151.9 296.6 151.4 295.8 150.5 295.6 149.7 296L129.6 308.2 132.4 297 140.9 291.9C141.7 291.4 141.9 290.5 141.4 289.7 141 288.9 140 288.7 139.2 289.1L133.4 292.7 135.6 284C136.1 283.1 135.3 282.2 134.4 282 133.5 281.8 132.7 282.3 132.5 283.2L130.5 291.3 127 285.4C126.5 284.7 125.6 284.4 124.8 284.9S123.8 286.3 124.3 287.1L129.4 295.6 126.6 306.8 114.5 286.6C114 285.9 113.1 285.6 112.3 286.1 111.5 286.6 111.3 287.5 111.8 288.3L125.6 311.1 119.9 334.1 102.8 317.7 102.3 291.9C102.2 290.9 101.4 290.3 100.4 290.1 99.4 290.2 98.9 291 98.7 291.9L99.2 315.2 90.9 307.2 90.8 296.9C90.8 295.9 89.9 295.4 89 295.1 88 295.2 87.4 296.1 87.3 296.7L87.5 303.7 81.4 297.9C80.8 297.4 79.6 297.1 79 298 78.5 298.8 78.3 299.7 79.1 300.3L85.3 306.1 78.3 306.3C77.3 306.4 76.7 307.3 76.6 307.9 76.7 308.6 77.2 309.4 77.8 309.5 77.8 309.5 78.1 309.6 78.1 309.6L88.4 309.5 96.6 317.5 73.4 318C72.4 318.1 71.9 318.9 71.7 319.6 71.9 320.3 72.3 321 73 321.2 73 321.2 73.3 321.3 73.3 321.3L99.8 320.6 116.8 337 94.1 343.6 71 330.6C70.1 330 69 330.4 68.8 331.4 68.2 332.2 68.6 333.3 69.6 333.5L89.8 344.8 78.8 348 69.8 343.2C69 342.6 67.9 343 67.6 343.9 67.1 344.8 67.5 345.9 68.4 346.1L74.5 349.6 66.3 351.8C65.6 352 65 353.2 65.2 353.9 65.3 354.6 65.9 355 66.5 355.2 66.8 355.3 67.1 355.3 67.5 355.1L75.7 352.8 72.2 358.9C71.6 359.8 72 360.8 73 361.1 73 361.1 73.3 361.1 73.3 361.1 73.9 361.3 74.7 360.8 75.1 360.3L80 351.3 91 348.1 79.7 368.4C79.2 369.2 79.6 370.3 80.5 370.5 80.5 370.5 80.8 370.6 80.8 370.6 81.4 370.8 82.2 370.3 82.7 369.7L95.7 346.6 118.4 340 112.7 363 89.8 376.8C89.1 377.3 88.8 378.2 89.3 379 89.8 379.7 90.7 380 91.5 379.5L111.5 367.7 108.8 378.8 100.2 384C99.5 384.5 99.2 385.4 99.7 386.2S101.1 387.2 101.9 386.7L107.7 383.2 105.7 391.3C105.5 392.2 105.9 393 106.9 393.2 107.8 393.4 108.6 393 108.8 392L110.8 384 114.3 389.8C114.5 390.2 114.8 390.6 115.4 390.7S116.4 390.6 116.8 390.4C117.6 389.9 117.8 389 117.3 388.2L112.2 379.7 115 368.5 127.1 388.7C127.3 389.1 127.6 389.4 128.2 389.6 128.5 389.7 129.2 389.5 129.6 389.3 130.4 388.8 130.6 387.9 130.1 387.1L116.3 364.2 122 341.3 139.1 357.7 139.7 384.2C139.9 384.9 140.4 385.7 141 385.8 141 385.8 141.3 385.9 141.3 385.9 142.3 385.8 142.9 385 143 384.4L142.5 361.2 150.7 369.1 150.8 379.4C151 380.1 151.5 380.9 152.1 381 152.1 381 152.4 381.1 152.4 381.1 153.4 381 153.9 380.2 154.1 379.5L153.8 372.5 160 378.4C160.3 378.4 160.5 378.8 160.8 378.9 161.5 379.1 162.2 378.9 162.6 378.4 163.2 377.5 163.4 376.6 162.5 376L156.4 370.2 163.4 370C164.4 369.9 164.9 369 165.1 368.4 165 367.4 164.2 366.9 163.5 366.7L153.3 366.8 145.1 358.8 168.3 358.3C169.3 358.2 169.8 357.4 170 356.8 169.3 355.6 168.5 354.7 167.5 354.8Z" fill="rgba(51, 121, 194, 0.58)"></path>
        <path d="M603.5 239.2L615.5 209.7 626.3 205.4 622.2 215.3C621.5 216.3 622.2 217.3 623.2 218.1 624.1 218.2 625.4 217.8 625.6 216.9L631.5 203.2 642 198.7 640.4 210 628.4 219.1C628.4 219.1 628.2 219.4 628.2 219.4 627.7 220 627.9 221.1 628.3 221.9 629.2 222.7 630.1 222.8 631.1 222.1L639.7 215.6 638.1 226.9 613 246.5C613 246.5 612.5 246.6 612.5 246.6 612 247.2 612.1 248.4 612.5 249.2 613.2 250.2 614.7 250.3 615.4 249.4L637.4 232.4 635.8 246.3 626 253.9C626 253.9 626 253.9 625.7 254.2 625.3 254.9 625.1 255.8 625.5 256.6 626.4 257.3 627.6 257.7 628.7 257L635.1 251.8 633.9 262C633.5 263.2 634.5 263.9 635.3 264.1 636.5 264.5 637.6 263.8 637.7 262.3L639.2 252.4 643.8 259C644.7 259.7 645.9 260.1 646.7 259.1 647.7 258.4 647.9 257.5 647.2 256.5L639.6 246.7 641.4 233 658.7 255.2C659.1 256 660.5 256.1 661.6 255.4 662.1 254.8 662.5 253.6 661.8 252.5L642.1 227.5 643.8 216.2 650.3 224.7C651 225.7 652.2 225.6 653.2 224.9 654 224.5 654.1 223 653.7 222.2L644.4 210.6 645.7 199 655 206.1 656.9 220.7C657.1 221.8 658 222.5 659.1 222.4 660 222.5 661 221.3 660.8 220.1L659.4 209.5 668.6 216.5 672.6 248.2C672.8 249.4 673.7 250.1 674.8 249.9 675.9 249.8 676.7 248.8 676.5 247.7L673.1 219.9 683.9 228.2 685.5 240.5C685.7 241.6 686.7 242.4 687.8 242.2 688.9 242.1 689.6 241.1 689.5 240L688.7 231.8 696.6 237.9C697.6 238.6 698.7 238.5 699.4 237.5 700.1 236.6 700 235.4 699 234.7L691.1 228.6 698.9 227.6C700.1 227.4 700.8 226.5 700.6 225.4S699.5 223.5 698.4 223.7L686.6 225.2 675.5 216.7 703 213.1C704.1 212.9 704.8 212 704.7 210.8 704.5 209.7 703.6 209 702.5 209.1L671.1 213.3 661.8 206.3 672.5 204.9C673.6 204.7 674.3 203.8 674.2 202.7 674 201.5 673.1 200.8 672 201L657.4 202.9 648.5 196.1 658.8 191.9 672.6 197.4C673.5 197.6 674.9 197.1 675 196.3 675.5 195.1 675.1 194.3 674.1 193.5L664.1 189.4 674.4 185.2 704 197.2C705.2 197.6 706 197.2 706.7 196.3 707.1 195.1 706.4 194 705.8 193.6L679.8 182.8 692.8 177.6 704 182.1C704.9 182.8 706 182.1 706.7 181.2 706.9 180.3 706.4 178.9 705.2 178.5L697.9 175.5 707.1 171.4C708.2 171.3 708.6 170.1 708.2 168.7 707.8 167.9 706.6 167.5 705.8 167.9L696.3 171.7 699.6 164.1C700 163 699.3 161.9 698.4 161.7 697.4 161 696.6 161.4 696.1 162 695.9 162.4 695.9 162.4 695.7 162.7L691.2 173.8 678.2 179 688.7 153.3C689.4 152.4 688.7 151.3 687.8 150.6 686.9 150.4 686.1 150.8 685.6 151.5 685.3 151.8 685.3 151.8 685.3 151.8L672.8 181.4 662.5 185.7 666.6 175.7C667 174.5 666.6 173.7 665.6 173 664.8 172.8 663.6 173 663.2 173.6 662.9 173.9 662.9 173.9 662.7 174.2L657.1 188.1 646.8 192.3 648.2 181.3 659.8 172C660.9 171.3 661 169.9 660.6 169.1 659.6 168.4 658.4 168 657.7 168.9L649.1 175.5 650.2 164.2 675.8 144.5C676.6 144.1 676.7 142.7 676.3 141.9 675.4 141.1 674.2 140.7 673.1 141.4L651.1 158.4 653 144.7 662.6 137.4C663.6 136.7 663.7 135.3 662.8 134.6 662.4 133.7 661.2 133.3 660.1 134L653.7 139.2 654.9 129C655.1 128.2 654.4 127.1 653.2 126.7 652.6 126.8 651.8 127.2 651.3 127.8 651.3 127.8 651.1 128.1 650.8 128.4L649.6 138.6 644.5 132.2C644.1 131.4 642.6 131.3 641.8 131.7 641.6 132 641.6 132 641.6 132 640.9 132.9 641 134 641.7 134.5L648.9 144.1 647.4 158 630.1 135.8C629.2 135.1 628.3 134.9 627.2 135.6 627.2 135.6 627 135.9 627 135.9 626.5 136.6 626.3 137.4 627.1 138.5L646.4 163.9 645.1 174.9 638.5 166.3C637.5 165.6 636.3 165.2 635.6 166.2 635.3 165.9 635.1 166.2 635.1 166.2 634.6 166.9 634.7 168 635.1 168.8L644.4 180.4 642.8 191.7 633.9 184.9 631.9 170.4C631.8 169.2 630.5 168.3 629.4 168.4 628.6 168.8 627.8 169.8 627.7 170.7L629.4 181.5 620.2 174.5 616 143.1C615.8 142 614.9 141.3 613.8 141.4 612.6 141.6 611.9 142.5 612.1 143.6L615.7 171.1 604.6 162.6 603 150.8C602.9 149.7 601.9 149 600.8 149.1S599 150.2 599.1 151.4L600.2 159.2 592.2 153.1C591.3 152.4 590.1 152.6 589.4 153.5 588.7 154.5 588.8 155.6 589.8 156.3L597.7 162.4 589.6 163.8C589.1 163.8 588.5 163.9 588.3 164.2 588 164.6 587.9 165.4 587.9 166 588.1 167.1 589 167.8 590.2 167.7L602.2 165.8 613.3 174.3 585.6 178.3C585 178.4 584.5 178.4 584.2 178.8 584 179.1 583.8 180 583.9 180.5 584 181.6 585 182.4 586.1 182.2L617.8 177.7 627 184.7 616 185.9C615.5 186 615 186.6 614.7 186.9 614.5 187.3 614.2 187.6 614.3 188.1 614.5 189.3 615.7 190.2 616.5 189.8L631.4 188.1 640.3 194.9 629.8 199.5 616.2 193.6C615.3 193.4 614.2 193.6 613.7 194.2 613.5 194.5 613.5 194.5 613.8 194.8 613 195.7 613.5 197.1 614.7 197.5L624.7 201.6 614.2 206.1 584.5 193.6C583.6 193.4 582.8 193.8 582.3 194.4 582.1 194.7 582.1 194.7 582.1 194.7 581.7 195.9 581.8 197.1 583 197.5L609 208.3 596 213.4 584.9 208.9C583.7 208.5 582.9 208.9 582.4 209.5 582.4 209.5 582.1 209.9 582.1 209.9 581.7 211.1 582.4 212.1 583.1 212.6L590.9 215.5 581.4 219.4C581.2 219.7 580.9 220 580.7 220.3 580.4 220.7 580.3 221.5 580.3 222.1 581.1 223.1 582 223.9 583.1 223.2L592.5 219.3 589.3 226.9C588.8 228.1 589.6 229.1 590.2 229.6 591.4 230 592.4 229.3 593.2 228.4L597.7 217.2 610.3 211.8 599.8 237.5C599.4 238.7 599.9 240 600.7 240.2 601.9 240.6 603.1 240.4 603.5 239.2Z" fill="rgba(51, 121, 194, 0.58)"></path>
        <path d="M246.7 463.7L276.8 477.7 286.8 505.5 257.7 500.2 239 472.8C239 472.8 238.7 472.6 238.7 472.6 238.1 472.1 236.9 472.2 236.1 472.5 235 473.2 234.9 474.6 235.8 475.4L252.2 499.3 238.1 496.7 230.7 486.3C230.7 486.3 230.4 486 230.4 486 229.8 485.5 228.7 485.6 227.9 486 226.8 486.6 226.6 488 227.5 488.8L232.4 496.1 222 494.1C221.1 493.9 219.8 494.9 219.6 495.7 219.1 496.9 220.3 497.9 221.2 498.1L231.6 500.1 224.3 505C223.2 505.6 223.1 507.1 224 507.8 224.6 508.9 226.1 509.1 226.9 508.2L237.3 500.8 251.2 503.6 227.3 520.1C226.2 520.7 226 522.2 226.9 522.9 227.6 524 229 524.2 229.8 523.3L257.2 504.5 286.3 509.8 266.9 532.7 233.6 535.4C232.5 535.5 231.7 536.4 231.8 537.6 231.9 538.7 232.8 539.5 234 539.4L263.3 537 254 547.9 241.6 549C240.4 549.1 239.7 550 239.8 551.1 239.9 552.2 240.8 553 241.9 552.9L250.4 552.2 243.1 560.8C242 561.4 242.4 562.8 243.4 563.6 244.3 564.4 245.4 564.3 246.2 563.3L252.9 555.4 253.6 563.9C253.7 565 254.6 565.8 255.7 565.7S257.6 564.7 257.5 563.5L256.5 551.1 265.8 540.2 268.2 569.5C268.3 570.6 269.3 571.4 270.4 571.3 271.5 571.2 272.3 570.3 272.2 569.1L269.4 535.9 288.6 513.3 298.5 541.1 284.8 570.4C284.3 571.5 285 572.6 285.9 573.4 287.1 573.9 288.1 573.2 288.9 572.3L301.2 546 306 559.5 300.4 571.1C300 572.2 300.6 573.3 301.5 574.1 302.7 574.6 303.8 573.9 304.3 573.3L307.9 565.3 311.6 575.3C311.9 576.1 313.1 577.1 314.2 576.5 315.3 575.8 316.1 574.9 315.4 573.8L311.8 563.9 319.7 567.5C320.9 568 322 567.3 322.5 566.7 322.7 565.8 322.6 564.7 322 564.2 322 564.2 321.7 563.9 321.7 563.9L310.2 558.3 305.4 544.8 331.7 557.1C332.8 557.6 333.9 557 334.4 556.3 334.6 555.5 334.5 554.3 333.9 553.8 333.9 553.8 333.6 553.6 333.6 553.6L303.5 539.6 293.6 511.8 322.7 517 341.4 544.4C342 545.5 343.5 545.7 344.3 544.7 345.3 544.1 345.5 542.7 344.6 541.9L328.1 518 342.2 520.5 349.6 531C350.3 532 351.7 532.2 352.5 531.3 353.6 530.6 353.8 529.2 352.8 528.4L348 521.2 358.4 523.1C359.2 523.4 360.6 522.4 360.8 521.5 361 520.7 360.6 519.8 360 519.3 359.7 519.1 359.4 518.8 358.9 518.8L348.5 516.9 355.7 512C356.8 511.4 357 509.9 356.1 509.1 356.1 509.1 355.8 508.9 355.8 508.9 355.2 508.4 354 508.5 353.2 508.8L342.7 516.2 328.6 513.7 352.5 497.2C353.6 496.6 353.8 495.1 352.9 494.4 352.9 494.4 352.6 494.1 352.6 494.1 351.9 493.6 350.8 493.7 350 494L322.6 512.8 293.5 507.5 312.6 484.9 345.9 482.2C347 482.1 347.8 481.2 347.7 480 347.6 478.9 346.7 478.1 345.6 478.2L316.5 480.3 325.8 469.4 338.2 468.3C339.4 468.2 340.1 467.3 340 466.2S339 464.3 337.9 464.4L329.4 465.1 336.2 457.1C336.9 456.2 336.8 455.1 335.9 454.3 335 453.6 333.9 453.6 333.1 454.6L326.4 462.5 325.7 454C325.6 453.5 325.6 452.9 325 452.4S323.8 451.9 323.3 452C322.1 452.1 321.3 453 321.4 454.1L322.5 466.5 313.2 477.5 310.7 448.2C310.7 447.6 310.6 447.1 310 446.5 309.7 446.3 308.9 446.1 308.3 446.1 307.2 446.2 306.4 447.1 306.5 448.2L309.2 481.5 290.1 504.1 280.1 476.2 294.1 446.1C294.3 445.3 294.2 444.2 293.6 443.6 293.6 443.6 293.3 443.4 293.3 443.4 292.1 442.9 291.1 443.6 290.5 444.2L278.2 470.4 273.4 456.9 279 445.4C279.2 444.5 279.1 443.4 278.5 442.9 278.5 442.9 278.2 442.6 278.2 442.6 277 442.2 276 442.8 275.4 443.4L271.8 451.4 268.2 441.5C267.9 441.2 267.8 440.7 267.5 440.4 266.9 439.9 266 439.7 265.2 440 264.1 440.7 263.4 441.6 264 442.7L267.7 452.6 259.7 449C258.5 448.5 257.5 449.2 256.9 449.8 256.5 451 257.1 452 257.7 452.6L269.3 458.1 274.1 471.6 247.8 459.3C246.6 458.9 245.5 459.5 245 460.1 245.2 461.8 245.6 463.2 246.7 463.7Z" fill="rgba(51, 121, 194, 0.58)"></path>
    </g>
    <defs>
        <mask id="SvgjsMask2179">
            <rect width="1440" height="560" fill="#ffffff"></rect>
        </mask>
        <linearGradient x1="15.28%" y1="-39.29%" x2="84.72%" y2="139.29%" gradientUnits="userSpaceOnUse" id="SvgjsLinearGradient2180">
            <stop stop-color="rgba(45, 185, 255, 1)" offset="0"></stop>
            <stop stop-color="rgba(255, 192, 37, 1)" offset="1"></stop>
        </linearGradient>
        <filter id="SvgjsFilter2181">
            <feGaussianBlur stdDeviation="1"></feGaussianBlur>
        </filter>
    </defs>
</svg>